<svg xmlns="http://www.w3.org/2000/svg" aria-hidden="true" style="position:absolute;width:0;height:0;overflow:hidden">
  <defs>
    <symbol id="icon-antenna-1" viewBox="0 0 32 32">
      <path fill="#2e2f42" d="m30.773 22.098-8.443-8.505.937-4.615c.242.094.499.144.758.146h.006a2.159 2.159 0 1 0-2.008-1.435l-4.96.605L8.972.161a.534.534 0 0 0-.377-.16.532.532 0 0 0-.373.155L6.709 1.66a.534.534 0 0 0 0 .754l.814.826a14.943 14.943 0 0 0 2.519 17.663.513.513 0 0 0 .146.098c-.034.18-.051.364-.052.547v6.187h-6.4a2.67 2.67 0 0 0-2.667 2.667v1.067c0 .295.239.533.533.533h24.533a.533.533 0 0 0 .533-.533v-1.067a2.67 2.67 0 0 0-2.667-2.667h-6.4v-2.742a15.09 15.09 0 0 0 3.049.32 14.854 14.854 0 0 0 7.04-1.783l.818.823a.534.534 0 0 0 .377.16.532.532 0 0 0 .373-.155l1.513-1.504a.534.534 0 0 0 0-.754zM23.28 6.233a1.067 1.067 0 1 1 .753 1.822h-.003a1.067 1.067 0 0 1-.747-1.823h-.002zm-1.256 3.505-.598 2.946-1.175-1.182 1.774-1.763zm-.605-.902-1.92 1.909-1.485-1.493 3.405-.415zM24.004 28.8a1.6 1.6 0 0 1 1.6 1.6v.533H2.137V30.4a1.6 1.6 0 0 1 1.6-1.6h20.267zm-7.467-2.133v1.067h-5.333v-1.067h5.333zM11.204 25.6v-4.053c0-1.294 1.196-2.347 2.667-2.347s2.667 1.053 2.667 2.347V25.6h-5.333zm6.4-1.696v-2.357c0-1.882-1.675-3.413-3.733-3.413a3.8 3.8 0 0 0-3.281 1.786A13.87 13.87 0 0 1 8.311 4.033l18.602 18.708a13.818 13.818 0 0 1-9.309 1.163zm11.289-.684L7.836 2.039l.755-.752 7.935 7.98c.004 0 .006.007.01.01l13.115 13.191-.757.752z" style="fill:var(--color1, #2e2f42)"/>
      <path fill="#4d5ae5" d="M13.876 20.267h-.005a1.6 1.6 0 1 0-.004 3.2h.005a1.6 1.6 0 1 0 .004-3.2zm.373 1.978a.534.534 0 0 1-.752-.756.534.534 0 0 1 .373-.155.534.534 0 0 1 .374.911h.005z" style="fill:var(--color2, #4d5ae5)"/>
    </symbol>
    <symbol id="icon-Client-1" viewBox="0 0 32 32">
      <path d="m13.333 12 1.335 1.272-2.478-.001v6.17h6.476v-2.359l1.333 1.27v-6.351h-6.667zm5.275 4.932-3.785-3.606h3.785v3.606zm-1.175 1.606h-4.218v-4.15h.298v3.869h3.92v.281zm-3.377 2.045-.157-.323h-.13l.228.428v.249h.118v-.249l.228-.428h-.129l-.157.323zm.58-.323h.028l.256.677h-.123l-.055-.159h-.262l-.055.159h-.122l.255-.677h.078zm-.124.426h.198l-.099-.287-.099.287zm.818-.112-.015-.019c-.017-.023-.031-.045-.04-.067s-.014-.044-.014-.067c0-.035.007-.066.022-.091s.035-.045.062-.059a.2.2 0 0 1 .093-.021c.034 0 .064.007.089.021s.044.032.058.054c.014.023.02.047.02.074a.155.155 0 0 1-.044.107.314.314 0 0 1-.047.041l-.047.034.134.158.012-.027a.286.286 0 0 0 .017-.099h.097a.396.396 0 0 1-.04.175.498.498 0 0 1-.019.03l.099.117h-.13l-.039-.046a.258.258 0 0 1-.069.038.305.305 0 0 1-.222-.007.186.186 0 0 1-.076-.068.184.184 0 0 1-.01-.172.214.214 0 0 1 .047-.059.578.578 0 0 1 .063-.05zm.056.068-.014.01c-.016.013-.029.026-.037.039s-.013.023-.015.034-.004.019-.004.027c0 .02.004.038.013.054s.021.029.038.039a.128.128 0 0 0 .061.014.179.179 0 0 0 .109-.038l-.151-.177zm.026-.124.042-.028c.02-.013.034-.026.042-.038s.013-.029.013-.047c0-.016-.006-.031-.019-.045s-.03-.02-.053-.02c-.016 0-.029.004-.04.011s-.019.017-.025.029a.098.098 0 0 0 .003.083c.007.015.017.03.029.046l.008.01zm1.185.199h-.116c-.003.029-.011.054-.021.075s-.026.035-.047.046a.167.167 0 0 1-.08.016c-.027 0-.051-.005-.07-.016s-.036-.026-.048-.046c-.012-.02-.022-.044-.028-.071s-.009-.059-.009-.093v-.057c0-.036.003-.068.01-.096s.017-.052.03-.071.03-.034.05-.044a.154.154 0 0 1 .07-.015c.033 0 .059.006.079.017s.035.027.046.047a.206.206 0 0 1 .02.075h.116c-.005-.045-.017-.085-.038-.12s-.049-.062-.087-.082-.083-.03-.137-.03c-.042 0-.081.007-.115.022s-.063.036-.087.065c-.024.028-.043.062-.056.101s-.019.083-.019.132v.056c0 .049.006.093.019.132s.031.073.055.101a.245.245 0 0 0 .199.086c.055 0 .101-.01.139-.03s.068-.047.089-.081a.26.26 0 0 0 .037-.119zm.646-.1v-.037c0-.051-.007-.097-.02-.137s-.032-.075-.057-.104c-.025-.029-.054-.051-.089-.066a.287.287 0 0 0-.228 0 .25.25 0 0 0-.089.066c-.025.029-.044.063-.058.104s-.02.086-.02.137v.037c0 .051.007.097.02.138s.034.075.059.104.055.05.089.066c.034.015.072.022.114.022s.08-.007.114-.022.064-.037.088-.066.044-.063.057-.104.02-.087.02-.138zm-.117-.038v.038c0 .038-.004.071-.011.1s-.018.054-.032.074a.137.137 0 0 1-.12.06.14.14 0 0 1-.121-.06c-.014-.02-.025-.045-.033-.074s-.011-.063-.011-.1v-.038c0-.038.004-.071.011-.1s.018-.053.032-.073c.014-.02.031-.035.052-.045s.043-.015.069-.015.049.005.069.015c.02.01.038.025.052.045s.025.044.032.073a.425.425 0 0 1 .011.1z"/>
    </symbol>
    <symbol id="icon-Client-2" viewBox="0 0 32 32">
      <path d="M15.641 11.797h-.026l-.12-.004h-.087c-.076 0-.153.002-.229.006h-.017a5.384 5.384 0 0 0-2.003.511l-.082.04v4.217l.193-.065c.169-.058.349-.11.536-.159a6.578 6.578 0 0 1 1.542-.205v.554a3.39 3.39 0 0 0-.203.006h-.016a6.173 6.173 0 0 0-2.599.733v-5.409a5.68 5.68 0 0 1 1.483-.603 5.682 5.682 0 0 1 1.397-.18h.081c.097.002.192.007.281.014.235.017.468.054.696.111v.545a4.264 4.264 0 0 0-.675-.102l-.014-.001c-.047-.004-.094-.008-.138-.008zm.96.558c.121.009.246.014.373.014a6.013 6.013 0 0 0 1.469-.188 6.078 6.078 0 0 0 1.413-.551v5.313c-.464.27-.963.473-1.483.603a5.73 5.73 0 0 1-1.397.18 4.257 4.257 0 0 1-1.06-.125v-5.347a4.761 4.761 0 0 0 .686.103zm2.703.041-.193.065a6.55 6.55 0 0 1-2.137.365c-.126 0-.241-.003-.353-.011l-.154-.01v4.338l.132.012c.122.011.249.016.376.016a5.161 5.161 0 0 0 1.261-.163 5.31 5.31 0 0 0 .985-.354l.082-.04v-4.219zM12.902 19.279a.283.283 0 0 0-.214-.086.31.31 0 0 0-.22.086.308.308 0 0 0-.084.217v.723a.3.3 0 0 0 .1.245.253.253 0 0 0 .099.051c.035.01.071.015.108.015a.292.292 0 0 0 .213-.092.303.303 0 0 0 .086-.212v-.081h-.189v.064a.154.154 0 0 1-.011.064.122.122 0 0 1-.027.041.134.134 0 0 1-.08.028c-.017.002-.034-.001-.05-.007s-.029-.018-.039-.031a.166.166 0 0 1-.025-.097v-.674a.239.239 0 0 1 .023-.108c.01-.015.024-.027.04-.035s.035-.011.052-.008a.1.1 0 0 1 .084.041.154.154 0 0 1 .031.097v.062h.187v-.074a.36.36 0 0 0-.023-.126.3.3 0 0 0-.063-.102zM14.025 19.27a.332.332 0 0 0-.428 0 .304.304 0 0 0-.1.241v.693a.289.289 0 0 0 .1.239c.029.027.063.048.1.061a.336.336 0 0 0 .226 0 .297.297 0 0 0 .2-.3v-.693a.313.313 0 0 0-.098-.241zm-.089.935a.124.124 0 0 1-.037.1c-.025.021-.056.032-.089.032s-.064-.011-.089-.032a.124.124 0 0 1-.037-.1v-.693a.124.124 0 0 1 .037-.1c.025-.021.056-.032.089-.032s.064.011.089.032a.124.124 0 0 1 .037.1v.693zM15.499 20.514v-1.312h-.182l-.239.695h-.003l-.24-.695h-.18v1.312h.187v-.798h.003l.184.564h.094l.185-.564h.003v.798h.187zM16.563 19.294a.267.267 0 0 0-.106-.072.42.42 0 0 0-.136-.02h-.279v1.312h.187v-.512h.096a.344.344 0 0 0 .169-.036.275.275 0 0 0 .103-.1.316.316 0 0 0 .043-.114.925.925 0 0 0 .01-.149.733.733 0 0 0-.018-.187.277.277 0 0 0-.069-.121zm-.096.4a.175.175 0 0 1-.017.068.112.112 0 0 1-.048.046.191.191 0 0 1-.088.016h-.085v-.446h.096a.185.185 0 0 1 .084.016.108.108 0 0 1 .044.048c.01.023.016.048.016.073v.087c0 .03.002.062 0 .09h-.002zM17.449 19.202h-.153l-.289 1.312h.187l.055-.282h.255l.055.282h.187l-.296-1.312zm-.172.852.092-.476h.003l.092.476h-.187zM18.657 19.992h-.003l-.282-.79h-.18v1.312h.187v-.789h.004l.286.789h.176v-1.312h-.187v.79zM19.8 19.202l-.15.522h-.004l-.15-.522h-.198l.257.758v.555h.187v-.555l.257-.758h-.198zM12.381 20.885h.09v.253h.061v-.253h.09v-.052h-.241v.052zM13.138 20.833l-.118.305h.065l.025-.069h.121l.026.069h.066l-.121-.305h-.065zm-.009.184.041-.113.041.113h-.083zM13.887 21.025h.07v.039a.12.12 0 0 1-.072.026c-.012.001-.025-.002-.036-.007s-.021-.013-.029-.022a.13.13 0 0 1-.023-.079c0-.068.029-.102.088-.102a.065.065 0 0 1 .069.048l.06-.012c-.013-.06-.056-.09-.129-.09a.153.153 0 0 0-.106.039c-.015.015-.027.034-.035.054s-.011.042-.009.063a.163.163 0 0 0 .039.114.15.15 0 0 0 .116.045.185.185 0 0 0 .129-.048v-.12h-.132v.051zM14.652 20.833h-.062v.305h.213v-.052h-.152v-.253zM15.299 20.833h-.062v.305h.062v-.305zM15.931 21.036l-.125-.203h-.06v.305h.057v-.199l.122.199h.061v-.305h-.056v.203zM16.502 21.003h.152v-.052h-.152v-.067h.163v-.052h-.225v.305h.231v-.052h-.17v-.082zM17.888 20.953h-.12v-.12h-.061v.305h.061v-.133h.12v.133h.061v-.305h-.061v.12zM18.463 21.003h.152v-.052h-.152v-.067h.164v-.052h-.225v.305h.231v-.052h-.17v-.082zM19.242 21.003c.053-.008.08-.036.08-.085.002-.013 0-.026-.006-.038s-.014-.022-.024-.03a.172.172 0 0 0-.089-.018h-.129v.305h.061v-.127h.012a.083.083 0 0 1 .038.007.077.077 0 0 1 .022.022l.066.097h.073l-.037-.06a.213.213 0 0 0-.067-.073zm-.061-.042h-.045v-.077h.048a.162.162 0 0 1 .062.007c.004.004.008.009.01.014s.003.011.003.017c0 .006-.002.012-.005.017s-.007.01-.012.013a.162.162 0 0 1-.062.007zM19.83 21.003h.152v-.052h-.152v-.067h.164v-.052h-.226v.305h.231v-.052h-.17v-.082z"/>
    </symbol>
    <symbol id="icon-Client-3" viewBox="0 0 32 32">
      <path d="m13.107 20.043.009.002a.018.018 0 0 1 .007.005l.042.04a.345.345 0 0 1-.118.075.474.474 0 0 1-.168.027.467.467 0 0 1-.158-.025.318.318 0 0 1-.196-.181.38.38 0 0 1 .002-.282c.018-.041.046-.078.082-.11s.079-.055.126-.071a.494.494 0 0 1 .162-.025.401.401 0 0 1 .264.086l-.035.042c-.002.003-.005.006-.009.008s-.009.004-.014.003a.027.027 0 0 1-.015-.005l-.019-.011-.026-.014a.365.365 0 0 0-.083-.025.354.354 0 0 0-.18.014.242.242 0 0 0-.15.137.285.285 0 0 0-.022.111.278.278 0 0 0 .022.113c.013.031.033.06.058.084.024.023.054.041.087.052a.35.35 0 0 0 .172.014.262.262 0 0 0 .139-.058.032.032 0 0 1 .02-.007zM14.321 19.844a.34.34 0 0 1-.028.14c-.017.041-.044.078-.079.108s-.077.055-.124.071a.515.515 0 0 1-.32 0c-.047-.016-.089-.041-.124-.071s-.062-.069-.08-.11a.358.358 0 0 1 0-.28.327.327 0 0 1 .204-.179.515.515 0 0 1 .32 0c.047.016.089.041.124.071s.062.068.079.108a.345.345 0 0 1 .028.141zm-.11 0a.288.288 0 0 0-.02-.112.234.234 0 0 0-.145-.137.368.368 0 0 0-.232 0 .257.257 0 0 0-.089.053.224.224 0 0 0-.057.084.323.323 0 0 0 0 .225c.012.031.031.06.057.084a.257.257 0 0 0 .089.053.383.383 0 0 0 .232 0 .234.234 0 0 0 .145-.137.288.288 0 0 0 .02-.112zM15.15 19.962l.011.025a.592.592 0 0 1 .026-.05l.269-.417c.005-.007.01-.012.015-.013a.055.055 0 0 1 .022-.002h.079v.679h-.094v-.543l-.27.423c-.003.006-.009.012-.016.015s-.015.006-.023.006h-.015c-.008 0-.016-.002-.023-.006s-.012-.009-.016-.016l-.278-.426v.545h-.091v-.677h.079c.007 0 .015 0 .022.002s.012.007.015.013l.274.418.014.024zM16.161 19.928v.254h-.105v-.678h.235a.484.484 0 0 1 .131.015.271.271 0 0 1 .093.042.187.187 0 0 1 .053.066.219.219 0 0 1-.001.174.194.194 0 0 1-.057.068.277.277 0 0 1-.093.045.491.491 0 0 1-.127.016l-.127-.002zm0-.073h.127a.31.31 0 0 0 .081-.01.171.171 0 0 0 .059-.029.128.128 0 0 0 .049-.102c.001-.019-.002-.038-.011-.055s-.021-.033-.037-.046a.223.223 0 0 0-.141-.036h-.127v.279zM17.574 20.183h-.083c-.008 0-.017-.002-.023-.006s-.011-.01-.014-.016l-.072-.164h-.359l-.074.164c-.003.006-.007.011-.013.015s-.015.007-.024.007h-.083l.315-.679h.109l.32.679zm-.52-.252h.297l-.125-.276a.493.493 0 0 1-.024-.064l-.012.035a.285.285 0 0 1-.012.029l-.124.276zM18.028 19.507a.048.048 0 0 1 .016.012l.46.512v-.527h.094v.679h-.053c-.007 0-.015-.001-.022-.004s-.012-.008-.017-.013l-.46-.511v.528h-.094v-.679h.056c.006 0 .013.001.019.003zM19.373 19.913v.27h-.105v-.27l-.291-.409h.094c.008 0 .016.002.023.006s.01.01.014.015l.182.264a.666.666 0 0 1 .032.06l.014-.029a.192.192 0 0 1 .018-.031l.179-.265c.004-.005.008-.01.014-.014s.014-.007.023-.007h.095l-.291.411zM15.098 18.365l.139.013c.709-.271 1.31-.715 1.725-1.276s.629-1.214.613-1.878l-.782-.668c.159.707.085 1.438-.215 2.11s-.812 1.261-1.48 1.699z"/>
      <path d="m14.819 18.334.021.004c.714-.436 1.259-1.046 1.563-1.75s.355-1.469.144-2.198l-1.114-.951c.45.782.632 1.657.523 2.524s-.504 1.689-1.138 2.372zM18.595 16.008c-.189.729-.649 1.387-1.31 1.876a4.255 4.255 0 0 1-.623.382c.539-.135 1.034-.374 1.447-.699s.734-.726.937-1.173l-.452-.385z"/>
      <path d="m18.418 15.901-.643-.549c-.012.626-.221 1.239-.604 1.773s-.926.971-1.574 1.265h.003c.144 0 .288-.007.432-.022.605-.211 1.14-.547 1.556-.977s.701-.942.83-1.49zM14.912 13.037l-.767-.656c-.686.226-1.276.624-1.692 1.142s-.641 1.131-.643 1.759c.003.694.276 1.368.777 1.914s1.201.934 1.989 1.103c.704-.732 1.115-1.637 1.176-2.584s-.234-1.884-.84-2.677zM20.19 15.8c-.003-.823-.387-1.613-1.068-2.195s-1.605-.91-2.569-.913c-.445 0-.887.07-1.302.207l4.697 4.013c.161-.355.243-.732.243-1.112z"/>
    </symbol>
    <symbol id="icon-Client-4" viewBox="0 0 32 32">
      <path d="M10.682 14.765h-.001c-.454 0-.823.332-.823.742v.001c0 .41.368.742.823.742h.001c.454 0 .823-.332.823-.742v-.001c0-.41-.368-.742-.823-.742zM16.755 14.528c-.001-.569-.253-1.114-.699-1.517s-1.051-.629-1.682-.63c-.631.001-1.236.228-1.683.63s-.698.948-.699 1.517v3.138s4.763-.478 4.763-3.137zM8.19 18.696c.001.396.176.775.487 1.055s.731.438 1.17.439c.439-.001.86-.159 1.17-.439s.485-.659.487-1.055v-2.183s-3.314.333-3.314 2.183zm1.657.391c-.086 0-.17-.023-.241-.066s-.127-.104-.16-.176a.36.36 0 0 1 .094-.426c.061-.055.138-.092.222-.107s.171-.007.251.022c.079.03.147.08.195.144a.361.361 0 0 1-.054.494.446.446 0 0 1-.307.115v-.001zM12.878 18.384v.813h-.167v-.813h.167zm.324.347v.131h-.369v-.131h.369zm.039-.347v.131h-.408v-.131h.408zm.764.387v.038c0 .062-.008.117-.025.166s-.04.091-.071.126a.318.318 0 0 1-.249.106c-.051 0-.098-.009-.14-.027s-.079-.044-.109-.079c-.031-.035-.055-.076-.072-.126s-.025-.105-.025-.166v-.038c0-.062.008-.118.025-.166s.04-.091.071-.126c.031-.035.067-.061.109-.079s.089-.027.14-.027c.051 0 .098.009.14.027s.079.045.109.079c.031.035.055.076.071.126s.026.104.026.166zm-.169.039v-.04c0-.043-.004-.081-.012-.114s-.019-.06-.035-.083c-.015-.022-.034-.039-.056-.05s-.047-.017-.075-.017-.053.006-.075.017c-.022.011-.04.028-.055.05s-.026.05-.034.083-.012.071-.012.114v.04c0 .043.004.081.012.114s.019.06.035.083c.015.022.034.039.056.051s.047.017.075.017c.028 0 .053-.006.075-.017s.04-.028.055-.051c.015-.023.026-.05.034-.083s.012-.071.012-.114zm.713.174c0-.015-.002-.028-.007-.039s-.012-.023-.023-.032c-.012-.01-.028-.02-.049-.03s-.048-.02-.081-.03c-.037-.012-.072-.025-.105-.04s-.062-.032-.087-.052a.195.195 0 0 1-.08-.162c0-.034.007-.065.022-.092s.036-.052.063-.071c.027-.02.058-.036.095-.046s.077-.016.121-.016c.06 0 .112.011.157.032s.079.051.104.089a.23.23 0 0 1 .037.129h-.166c0-.024-.005-.045-.015-.063s-.025-.033-.045-.043a.167.167 0 0 0-.075-.016c-.029 0-.053.004-.073.013s-.034.02-.044.035a.085.085 0 0 0-.014.049c0 .014.003.026.01.037s.018.022.031.031.031.019.051.027c.02.009.043.017.07.025.044.013.083.028.117.045s.062.036.085.056.04.044.051.071a.213.213 0 0 1 .017.09.195.195 0 0 1-.081.166c-.026.019-.057.034-.093.044a.45.45 0 0 1-.347-.05c-.032-.022-.057-.049-.076-.083s-.028-.073-.028-.119h.168c0 .025.004.047.012.064s.019.032.033.042c.014.011.032.019.051.023s.042.007.066.007c.029 0 .053-.004.071-.012s.033-.02.042-.034a.093.093 0 0 0 .014-.049zm.644-.6v.813h-.167v-.813h.167zm.25 0v.131h-.663v-.131h.663zm.641.682v.131h-.432v-.131h.432zm-.378-.682v.813h-.167v-.813h.167zm.321.331v.127h-.376v-.127h.376zm.056-.331v.131h-.432v-.131h.432zm.098 0h.303c.062 0 .116.009.16.028s.08.046.104.083.036.081.036.134c0 .044-.007.081-.022.112s-.035.057-.062.078a.316.316 0 0 1-.093.049l-.053.028h-.263l-.001-.131h.196c.029 0 .054-.005.073-.016s.034-.025.044-.044a.136.136 0 0 0 .015-.065c0-.026-.005-.049-.015-.068s-.024-.034-.044-.044a.162.162 0 0 0-.074-.015h-.136v.681h-.167v-.813zm.455.812-.185-.362.177-.001.188.355v.008h-.179zm.879-.289h-.207v-.131h.207c.032 0 .058-.005.078-.016s.035-.026.044-.045.014-.04.014-.064-.005-.047-.014-.068-.024-.038-.044-.05a.14.14 0 0 0-.078-.019h-.149v.681h-.167v-.813h.316c.064 0 .118.012.163.035s.081.054.105.094.036.086.036.138c0 .052-.012.098-.036.136s-.059.068-.105.089a.386.386 0 0 1-.163.031zm.965.159v.131h-.432v-.131h.432zm-.378-.682v.813h-.167v-.813h.167zm.322.331v.127h-.376v-.127h.376zm.055-.331v.131h-.432v-.131h.432zm.473 0v.813h-.167v-.813h.167zm.25 0v.131h-.663v-.131h.663zm.641.682v.131h-.432v-.131h.432zm-.378-.682v.813h-.167v-.813h.167zm.321.331v.127h-.376v-.127h.376zm.056-.331v.131h-.432v-.131h.432zm.098 0h.303c.062 0 .115.009.16.028s.08.046.104.083.036.081.036.134c0 .044-.007.081-.022.112s-.035.057-.062.078a.329.329 0 0 1-.093.049l-.053.028h-.263l-.001-.131h.196c.029 0 .054-.005.073-.016s.034-.025.044-.044a.159.159 0 0 0 .001-.133.094.094 0 0 0-.044-.044.162.162 0 0 0-.074-.015h-.136v.681h-.167v-.813zm.455.812-.185-.362.177-.001.187.355v.008h-.179zm.7-.212c0-.015-.002-.028-.007-.039s-.012-.023-.023-.032c-.011-.01-.028-.02-.049-.03s-.048-.02-.081-.03c-.037-.012-.072-.025-.105-.04s-.062-.032-.087-.052a.195.195 0 0 1-.08-.162c0-.034.007-.065.022-.092s.036-.052.062-.071c.027-.02.058-.036.095-.046s.077-.016.121-.016c.06 0 .112.011.157.032s.079.051.104.089a.23.23 0 0 1 .037.129h-.166c0-.024-.005-.045-.015-.063s-.025-.033-.045-.043a.167.167 0 0 0-.075-.016c-.029 0-.053.004-.073.013s-.034.02-.043.035a.085.085 0 0 0-.014.049c0 .014.003.026.01.037s.017.022.031.031c.014.01.031.019.051.027s.043.017.07.025c.044.013.083.028.117.045s.062.036.085.056.04.044.051.071a.23.23 0 0 1 .017.09.195.195 0 0 1-.081.166c-.026.019-.057.034-.093.044a.45.45 0 0 1-.346-.05c-.032-.022-.057-.049-.076-.083s-.028-.073-.028-.119h.168c0 .025.004.047.012.064s.019.032.033.042c.014.011.032.019.051.023s.042.007.066.007c.029 0 .053-.004.071-.012s.033-.02.042-.034a.093.093 0 0 0 .014-.049z"/>
    </symbol>
    <symbol id="icon-Client-5" viewBox="0 0 32 32">
      <path d="M11.198 19.119a.262.262 0 0 1 .07.184c.002.044-.006.087-.025.128s-.048.076-.084.105a.508.508 0 0 1-.317.085h-.557v-1.168h.546a.502.502 0 0 1 .302.078c.035.027.063.06.082.098s.027.079.024.12a.256.256 0 0 1-.063.179.3.3 0 0 1-.166.091.324.324 0 0 1 .188.1zm-.653-.177h.233a.231.231 0 0 0 .148-.039c.018-.014.031-.032.04-.052s.012-.041.01-.062c.002-.021-.002-.042-.011-.062s-.022-.038-.039-.052a.246.246 0 0 0-.153-.039h-.229v.306zm.404.448c.019-.015.033-.033.043-.054s.014-.043.012-.065c.001-.023-.003-.045-.013-.066s-.025-.039-.044-.054a.265.265 0 0 0-.158-.042h-.245v.321h.248a.261.261 0 0 0 .157-.041zM12.314 19.621l-.304-.456h-.114v.456h-.261v-1.168h.494a.525.525 0 0 1 .344.099.345.345 0 0 1 .037.484.414.414 0 0 1-.236.119l.323.467h-.284zm-.418-.616h.214c.148 0 .223-.059.223-.177a.159.159 0 0 0-.055-.131.248.248 0 0 0-.168-.047h-.216l.003.355zM13.741 19.386h-.52l-.092.235h-.274l.478-1.155h.296l.476 1.155h-.274l-.09-.235zm-.069-.177-.19-.493-.19.493h.38zM15.528 19.621h-.259l-.581-.794v.794h-.259v-1.168h.259l.581.799v-.799h.259v1.168zM17.008 19.341a.537.537 0 0 1-.235.206.839.839 0 0 1-.364.074h-.461v-1.168h.461a.852.852 0 0 1 .364.072.532.532 0 0 1 .235.204.628.628 0 0 1 0 .612zm-.297-.028c.074-.078.115-.177.115-.279s-.041-.201-.115-.279a.482.482 0 0 0-.325-.099h-.18v.756h.18a.486.486 0 0 0 .325-.099zM13.904 11.956s3.346 1.137 3.275 2.783v2.784s-3.344-1.138-3.274-2.784l-.001-2.783zM20.16 16.87a4.899 4.899 0 0 1 2.126-.705v-.871c-.879.305-1.625.858-2.126 1.577z"/>
      <path d="M19.78 17.133c.517-.938 1.414-1.661 2.506-2.022V12.6s-4.765 1.62-4.665 3.964v3.963s.212-.072.546-.208c0-.127 0-.255.015-.383.099-1.088.673-2.096 1.597-2.803z"/>
      <path d="M19.327 18.605a3.7 3.7 0 0 1 .167-.811 3.639 3.639 0 0 0-1.01 2.394c.271-.117.586-.263.917-.435a3.664 3.664 0 0 1-.074-1.148zM19.516 18.619a3.52 3.52 0 0 0 .059 1.039c1.302-.701 2.765-1.785 2.708-3.095v-.114c-.93.094-1.8.46-2.477 1.042a3.596 3.596 0 0 0-.29 1.128z"/>
    </symbol>
    <symbol id="icon-Client-6" viewBox="0 0 32 32">
      <path d="M16.291 15.894a.559.559 0 0 1-.115-.379v-.55c0-.169.038-.297.115-.384s.208-.131.394-.131c.175 0 .299.037.373.112.08.095.119.212.11.329v.129h-.313v-.131a.683.683 0 0 0-.009-.128.123.123 0 0 0-.045-.076.185.185 0 0 0-.113-.03.189.189 0 0 0-.119.031.15.15 0 0 0-.052.084.62.62 0 0 0-.012.136v.668a.341.341 0 0 0 .04.187c.016.02.037.036.063.045s.053.014.081.011c.04.003.08-.008.111-.03a.133.133 0 0 0 .047-.081.749.749 0 0 0 .01-.134v-.135h.313v.124a.504.504 0 0 1-.108.346c-.072.082-.195.123-.375.123s-.316-.044-.394-.134zM17.596 15.9c-.079-.086-.119-.21-.119-.376v-.579c0-.163.04-.287.119-.371s.211-.126.397-.125c.184 0 .316.042.395.125s.119.208.119.371v.579c0 .163-.04.289-.121.375s-.211.129-.394.129c-.182 0-.317-.044-.397-.129zm.542-.139a.332.332 0 0 0 .038-.171v-.708a.311.311 0 0 0-.037-.168c-.016-.02-.038-.036-.064-.046s-.055-.013-.083-.01c-.028-.003-.057 0-.083.01s-.048.026-.064.046a.31.31 0 0 0-.038.168v.712a.311.311 0 0 0 .038.171c.018.018.041.033.066.042s.053.015.081.015c.028 0 .055-.005.081-.015s.048-.024.066-.042v-.003zM18.883 14.466h.337l.254 1.068.259-1.068h.328l.033 1.541h-.243l-.026-1.071-.25 1.071h-.194l-.259-1.075-.024 1.075h-.245l.03-1.541zM20.473 14.466h.525c.303 0 .454.146.454.438 0 .279-.159.419-.478.419h-.179v.685h-.324l.002-1.541zm.449.658a.252.252 0 0 0 .178-.048.25.25 0 0 0 .047-.174.474.474 0 0 0-.015-.14c-.005-.015-.013-.03-.024-.042s-.025-.023-.041-.031a.339.339 0 0 0-.145-.025h-.126v.46h.126zM21.92 14.466h.348l.357 1.541h-.302l-.071-.355h-.311l-.073.355h-.307l.357-1.541zm.297 1.007-.121-.647-.121.647h.242zM22.914 14.466h.227l.434.879v-.879h.269v1.541h-.216l-.437-.918v.918h-.278l.001-1.541zM24.475 15.419l-.361-.951h.304l.22.611.207-.611h.298l-.357.951v.588h-.311v-.588zM16.792 16.681v.081h-.265v.626h-.111v-.626h-.266v-.081h.641zM17.621 17.387h-.086a.042.042 0 0 1-.038-.023l-.077-.168h-.367l-.076.168a.039.039 0 0 1-.012.019.04.04 0 0 1-.024.007h-.086l.324-.707h.113l.328.704zm-.537-.262h.306l-.13-.288a.412.412 0 0 1-.024-.067l-.012.038-.012.03-.128.287zM18.18 17.318a.434.434 0 0 0 .203-.038v-.159h-.13l-.009-.001-.008-.004-.005-.006a.019.019 0 0 1-.002-.007v-.054h.252v.271a.5.5 0 0 1-.218.073.747.747 0 0 1-.095.004.525.525 0 0 1-.163-.026c-.049-.017-.093-.042-.13-.074a.324.324 0 0 1-.114-.259.324.324 0 0 1 .113-.26.377.377 0 0 1 .13-.073.536.536 0 0 1 .174-.026.506.506 0 0 1 .232.052.32.32 0 0 1 .056.037l-.031.044c-.002.004-.006.007-.011.01s-.01.004-.015.004a.036.036 0 0 1-.02-.006c-.01-.004-.02-.01-.032-.017-.014-.007-.028-.014-.043-.019a.377.377 0 0 0-.142-.022.376.376 0 0 0-.125.02.266.266 0 0 0-.095.056.238.238 0 0 0-.06.088.331.331 0 0 0 0 .236.244.244 0 0 0 .065.089.291.291 0 0 0 .095.056.368.368 0 0 0 .128.014zM19.214 17.307h.354v.081h-.462v-.707h.111l-.003.626zM19.937 17.387h-.111v-.707h.111v.707zM20.349 16.684a.07.07 0 0 1 .017.013l.474.533v-.552h.097v.71h-.056c-.008.001-.017-.001-.024-.004s-.013-.008-.018-.013l-.473-.532v.55h-.093v-.707h.058c.006 0 .013.001.018.003zM21.753 16.681v.078h-.393v.233h.318v.075h-.318v.241h.393v.078h-.507v-.705h.507zM10.132 12.316l4.924 1.206v4.228l-4.924-1.206v-4.228zm-.315-.36v4.794l5.555 1.361v-4.793l-5.555-1.362z"/>
      <path d="m12.794 20.337-5.556-1.363V14.18l5.556 1.362v4.794z"/>
      <path d="m9.909 12.262 4.86 1.191-2.067 1.784-4.861-1.192 2.067-1.783zm-.092-.306-2.578 2.225 5.556 1.362 2.578-2.225-5.555-1.362zM13.107 20.067l2.265-1.955-2.265-.556v2.511z"/>
    </symbol>
    <symbol id="icon-clock-1" viewBox="0 0 32 32">
      <path fill="#2e2f42" d="M31.297 15.301C31.295 6.849 24.442-.002 15.989 0S.686 6.855.688 15.308a15.304 15.304 0 0 0 10.649 14.576.662.662 0 0 0 .529-.065.637.637 0 0 0 .283-.356l3.865-12.25a1.912 1.912 0 1 0-.84-3.635l-5.106-5.107a.637.637 0 0 0-.902.902l5.103 5.109a1.876 1.876 0 0 0 .536 2.309l-3.683 11.673C3.844 25.783.118 17.71 2.799 10.432S13.553-.572 20.831 2.109c7.278 2.681 11.004 10.754 8.323 18.032a14.042 14.042 0 0 1-7.462 7.973l-.398-1.874a.637.637 0 0 0-1.049-.344l-3.837 3.426a.637.637 0 0 0 .231 1.084l4.899 1.564a.638.638 0 0 0 .819-.74l-.391-1.839a15.255 15.255 0 0 0 9.329-14.089zm-15.305-.637a.638.638 0 1 1 0 1.277.638.638 0 0 1 0-1.277zm2.101 14.864 2.184-1.948.603 2.84-2.787-.892z" style="fill:var(--color1, #2e2f42)"/>
      <path fill="#4d5ae5" d="M15.354 3.185V4.46a.638.638 0 1 0 1.276 0V3.185a.638.638 0 0 0-1.276 0zM3.876 14.664a.638.638 0 0 0 0 1.276h1.275a.638.638 0 1 0 0-1.276H3.876zM28.108 15.939a.638.638 0 1 0 0-1.276h-1.275a.638.638 0 0 0 0 1.276h1.275z" style="fill:var(--color2, #4d5ae5)"/>
    </symbol>
    <symbol id="icon-diagram-1" viewBox="0 0 32 32">
      <path fill="#4d5ae5" d="M14.925 14.965h1.066v4.798h-1.066v-4.797zM19.19 17.097h1.066v2.665H19.19v-2.665zM10.661 18.696h1.066v1.066h-1.066v-1.066zM7.463 18.163h1.066v1.599H7.463v-1.599z" style="fill:var(--color2, #4d5ae5)"/>
      <path fill="#2e2f42" d="M1.599 28.291h25.587a1.6 1.6 0 0 0 1.599-1.599V24.56a1.6 1.6 0 0 0-1.599-1.599h-.533V9.668L29.681 6.8a1.608 1.608 0 1 0-.746-.763L26.654 8.2V6.97a1.6 1.6 0 0 0-1.599-1.599H3.733A1.6 1.6 0 0 0 2.134 6.97v15.992h-.533a1.6 1.6 0 0 0-1.599 1.599v2.132a1.6 1.6 0 0 0 1.599 1.599zM30.384 4.837a.533.533 0 1 1 0 1.067.533.533 0 0 1 0-1.067zM3.198 6.969c0-.294.239-.533.533-.533h21.322c.294 0 .533.239.533.533v2.239l-1.066 1.013V8.035a.533.533 0 0 0-.533-.533H4.797a.533.533 0 0 0-.533.533v13.326c0 .294.239.533.533.533h19.19a.533.533 0 0 0 .533-.533v-9.674l1.066-1.01v12.284H3.198V6.969zm4.798 6.93a1.598 1.598 0 1 0 1.107 2.749l1.853.93a.532.532 0 0 0 .636-.123l3.939-4.431 3.872 2.901a.533.533 0 0 0 .686-.039l3.365-3.188v8.131H5.33V8.569h18.124v2.66l-3.771 3.572-3.904-2.927a.533.533 0 0 0-.718.072l-3.993 4.493-1.493-.746c.011-.064.018-.129.02-.193a1.6 1.6 0 0 0-1.599-1.599zm.533 1.599a.533.533 0 1 1-1.067 0 .533.533 0 0 1 1.067 0zm3.198 8.529h5.331v.533a.533.533 0 0 1-.533.533h-4.264a.533.533 0 0 1-.533-.533v-.533zm-10.661.533c0-.294.239-.533.533-.533h9.062v.533a1.6 1.6 0 0 0 1.599 1.599h4.264a1.6 1.6 0 0 0 1.599-1.599v-.533h9.062c.294 0 .533.239.533.533v2.132a.533.533 0 0 1-.533.533H1.598a.533.533 0 0 1-.533-.533V24.56z" style="fill:var(--color1, #2e2f42)"/>
    </symbol>
    <symbol id="icon-facebook-1" viewBox="0 0 32 32">
      <path d="M21.329 5.313h2.921V.225C23.746.156 22.013 0 19.994 0c-4.212 0-7.097 2.649-7.097 7.519V12H8.249v5.688h4.648V32h5.699V17.689h4.46l.708-5.688h-5.169V8.082c.001-1.644.444-2.769 2.735-2.769z"/>
    </symbol>
    <symbol id="icon-facebook-team" viewBox="0 0 32 32">
      <path d="M21.329 5.313h2.921V.225C23.746.156 22.013 0 19.994 0c-4.212 0-7.097 2.649-7.097 7.519V12H8.249v5.688h4.648V32h5.699V17.689h4.46l.708-5.688h-5.169V8.082c.001-1.644.444-2.769 2.735-2.769z"/>
    </symbol>
    <symbol id="icon-instagram-2" viewBox="0 0 32 32">
      <path d="M31.969 9.408c-.075-1.7-.35-2.869-.744-3.882a7.793 7.793 0 0 0-1.851-2.838A7.867 7.867 0 0 0 26.542.844C25.523.45 24.361.175 22.66.1 20.947.019 20.403 0 16.059 0s-4.888.019-6.595.094c-1.7.075-2.869.35-3.882.744a7.803 7.803 0 0 0-2.838 1.85A7.867 7.867 0 0 0 .9 5.52C.506 6.539.231 7.702.156 9.402c-.081 1.713-.1 2.257-.1 6.601s.019 4.888.094 6.595c.075 1.7.35 2.869.744 3.882a7.895 7.895 0 0 0 1.85 2.838 7.867 7.867 0 0 0 2.832 1.844c1.019.394 2.182.669 3.882.744 1.706.075 2.25.094 6.595.094s4.888-.019 6.595-.094c1.7-.075 2.869-.35 3.882-.744a8.181 8.181 0 0 0 4.682-4.682c.394-1.019.669-2.182.744-3.882.075-1.707.094-2.25.094-6.595s-.006-4.888-.081-6.595zm-2.882 13.065c-.069 1.563-.331 2.407-.55 2.969a5.31 5.31 0 0 1-3.038 3.038c-.563.219-1.413.481-2.969.55-1.688.075-2.194.094-6.464.094s-4.782-.019-6.464-.094c-1.563-.069-2.407-.331-2.969-.55a4.926 4.926 0 0 1-1.838-1.194 4.974 4.974 0 0 1-1.194-1.838c-.219-.563-.481-1.413-.55-2.969-.075-1.688-.094-2.194-.094-6.464s.019-4.782.094-6.464c.069-1.563.331-2.407.55-2.969a4.868 4.868 0 0 1 1.2-1.838A4.974 4.974 0 0 1 6.639 3.55c.563-.219 1.413-.481 2.969-.55 1.688-.075 2.194-.094 6.464-.094 4.276 0 4.782.019 6.464.094 1.563.069 2.407.331 2.969.55a4.914 4.914 0 0 1 1.838 1.194 4.974 4.974 0 0 1 1.194 1.838c.219.563.481 1.413.55 2.969.075 1.688.094 2.194.094 6.464s-.019 4.77-.094 6.458z"/>
      <path d="M16.059 7.783c-4.538 0-8.22 3.682-8.22 8.22s3.682 8.22 8.22 8.22c4.539 0 8.22-3.682 8.22-8.22s-3.682-8.22-8.22-8.22zm0 13.552a5.333 5.333 0 0 1 0-10.664 5.332 5.332 0 0 1 0 10.664zM26.524 7.458a1.919 1.919 0 1 1-3.838 0 1.919 1.919 0 0 1 3.838 0z"/>
    </symbol>
    <symbol id="icon-instagram-team" viewBox="0 0 32 32">
      <path d="M31.969 9.408c-.075-1.7-.35-2.869-.744-3.882a7.803 7.803 0 0 0-1.85-2.838A7.867 7.867 0 0 0 26.543.844C25.524.45 24.361.175 22.661.1 20.948.019 20.404 0 16.06 0s-4.888.019-6.595.094c-1.7.075-2.869.35-3.882.744a7.803 7.803 0 0 0-2.838 1.85A7.867 7.867 0 0 0 .901 5.52C.507 6.539.232 7.702.157 9.402c-.081 1.713-.1 2.257-.1 6.601s.019 4.888.094 6.595c.075 1.7.35 2.869.744 3.882a7.895 7.895 0 0 0 1.85 2.838 7.867 7.867 0 0 0 2.832 1.844c1.019.394 2.182.669 3.882.744 1.706.075 2.25.094 6.595.094s4.888-.018 6.595-.094c1.7-.075 2.869-.35 3.882-.744a8.181 8.181 0 0 0 4.682-4.682c.394-1.019.669-2.182.744-3.882.075-1.707.094-2.251.094-6.595s-.006-4.888-.081-6.595zm-2.882 13.065c-.069 1.563-.331 2.407-.55 2.969a5.307 5.307 0 0 1-3.038 3.038c-.563.219-1.413.481-2.969.55-1.688.075-2.194.094-6.464.094s-4.782-.018-6.464-.094c-1.563-.069-2.407-.331-2.969-.55a4.926 4.926 0 0 1-1.838-1.194 4.974 4.974 0 0 1-1.194-1.838c-.219-.563-.481-1.413-.55-2.969-.075-1.688-.094-2.194-.094-6.464s.019-4.782.094-6.464c.069-1.563.331-2.407.55-2.969a4.868 4.868 0 0 1 1.2-1.838A4.974 4.974 0 0 1 6.639 3.55c.563-.219 1.413-.481 2.969-.55 1.688-.075 2.194-.094 6.464-.094 4.276 0 4.782.019 6.464.094 1.563.069 2.407.331 2.969.55a4.914 4.914 0 0 1 1.838 1.194 4.974 4.974 0 0 1 1.194 1.838c.219.563.481 1.413.55 2.969.075 1.688.094 2.194.094 6.464s-.019 4.77-.094 6.457z"/>
      <path d="M16.059 7.782c-4.538 0-8.22 3.682-8.22 8.22s3.682 8.22 8.22 8.22 8.22-3.682 8.22-8.22-3.682-8.22-8.22-8.22zm0 13.553a5.333 5.333 0 0 1 0-10.664 5.333 5.333 0 0 1 0 10.664zM26.524 7.457a1.919 1.919 0 1 1-3.838 0 1.919 1.919 0 0 1 3.838 0z"/>
    </symbol>
    <symbol id="icon-linkedin-1" viewBox="0 0 32 32">
      <path d="M31.992 32v-.001H32V20.263c0-5.741-1.236-10.164-7.948-10.164-3.227 0-5.392 1.771-6.276 3.449h-.093v-2.913h-6.364v21.364h6.627V21.42c0-2.785.528-5.479 3.977-5.479 3.399 0 3.449 3.179 3.449 5.657v10.401h6.62zM.528 10.636h6.635V32H.528V10.636zM3.843 0C1.722 0 0 1.721 0 3.843s1.721 3.879 3.843 3.879c2.121 0 3.843-1.757 3.843-3.879A3.846 3.846 0 0 0 3.843 0z"/>
    </symbol>
    <symbol id="icon-linkedin-team" viewBox="0 0 32 32">
      <path d="M31.992 32v-.001H32V20.263c0-5.741-1.236-10.164-7.948-10.164-3.227 0-5.392 1.771-6.276 3.449h-.093v-2.913h-6.364v21.364h6.627V21.42c0-2.785.528-5.479 3.977-5.479 3.399 0 3.449 3.179 3.449 5.657v10.401h6.62zM.528 10.636h6.635V32H.528V10.636zM3.843 0C1.722 0 0 1.721 0 3.843s1.721 3.879 3.843 3.879c2.121 0 3.843-1.757 3.843-3.879A3.846 3.846 0 0 0 3.843 0z"/>
    </symbol>
    <symbol id="icon-twitter-1" viewBox="0 0 32 32">
      <path d="M32 6.078c-1.19.522-2.458.868-3.78 1.036a6.523 6.523 0 0 0 2.886-3.626 13.11 13.11 0 0 1-4.16 1.588A6.574 6.574 0 0 0 22.154 3c-3.632 0-6.556 2.948-6.556 6.562 0 .52.044 1.02.152 1.496-5.454-.266-10.28-2.88-13.522-6.862a6.605 6.605 0 0 0-.898 3.316 6.57 6.57 0 0 0 2.914 5.452 6.479 6.479 0 0 1-2.964-.808v.072c0 3.188 2.274 5.836 5.256 6.446a6.548 6.548 0 0 1-1.72.216 5.8 5.8 0 0 1-1.242-.112c.85 2.598 3.262 4.508 6.13 4.57a13.182 13.182 0 0 1-8.134 2.798c-.538 0-1.054-.024-1.57-.09A18.469 18.469 0 0 0 10.064 29c12.072 0 18.672-10 18.672-18.668 0-.29-.01-.57-.024-.848A13.087 13.087 0 0 0 32 6.078z"/>
    </symbol>
    <symbol id="icon-twitter-team" viewBox="0 0 32 32">
      <path d="M32 6.078c-1.19.522-2.458.868-3.78 1.036a6.523 6.523 0 0 0 2.886-3.626 13.11 13.11 0 0 1-4.16 1.588A6.574 6.574 0 0 0 22.154 3c-3.632 0-6.556 2.948-6.556 6.562 0 .52.044 1.02.152 1.496-5.454-.266-10.28-2.88-13.522-6.862a6.605 6.605 0 0 0-.898 3.316 6.57 6.57 0 0 0 2.914 5.452 6.479 6.479 0 0 1-2.964-.808v.072c0 3.188 2.274 5.836 5.256 6.446a6.548 6.548 0 0 1-1.72.216 5.8 5.8 0 0 1-1.242-.112c.85 2.598 3.262 4.508 6.13 4.57a13.182 13.182 0 0 1-8.134 2.798c-.538 0-1.054-.024-1.57-.09A18.469 18.469 0 0 0 10.064 29c12.072 0 18.672-10 18.672-18.668 0-.29-.01-.57-.024-.848A13.087 13.087 0 0 0 32 6.078z"/>
    </symbol>
    <symbol id="icon-Vector-1" viewBox="0 0 32 32">
      <path d="M29.434 13.653a1.99 1.99 0 0 0-1.334-.791 1.992 1.992 0 0 0-1.504.395l-1.406 1.078-2.131 1.591-1.525-.607c2.719-1.22 4.619-3.939 4.619-7.096 0-4.293-3.506-7.785-7.816-7.785s-7.816 3.492-7.816 7.785c0 1.556.465 3.003 1.258 4.22l-3.103-.027h-.005c-.01 0-.017.005-.026.005a.556.556 0 0 0-.174.035c-.014.005-.029.008-.043.015l-.022.007-3.63 1.792-.001.001-2.126 1.022a.468.468 0 0 0-.071.04 2 2 0 0 0 .514 3.575 2.008 2.008 0 0 0 1.548-.144l1.558-.829 2.542-1.313 1.523-.009-6.11 6.081-.002.001-1.503 1.497c-.355.353-.55.822-.55 1.322s.195.97.55 1.323c.365.363.844.545 1.324.545s.959-.182 1.325-.545l1.476-1.47 1.955-1.459 1.011 1.007-1.978 1.97-.002.001-1.503 1.497c-.355.353-.55.822-.55 1.322s.195.97.55 1.323c.365.363.845.545 1.325.545s.96-.182 1.325-.545l3.909-3.892.001-.002 1.134-1.123-.004-.004c.007-.007.017-.01.025-.017l5.8-6.353 3.897.555a.583.583 0 0 0 .294-.037c.02-.007.037-.017.056-.026.022-.011.044-.017.065-.03l3.608-2.395c.013-.009.02-.023.033-.033.014-.011.032-.016.045-.029l1.428-1.337a1.998 1.998 0 0 0 .238-2.652zM4.076 17.707a.802.802 0 0 1-.627.058.802.802 0 0 1-.238-1.415l1.475-.71.504 1.474-1.114.592zm3.927-2.052-1.738.898-.493-1.441 2.276-1.123-.044 1.666zm16.954-7.434a6.515 6.515 0 0 1-.672 2.874L19.59 8.963a2.088 2.088 0 0 0-.885-1.558l1.644-5.457c2.67.849 4.609 3.34 4.609 6.274zm-13.237 0c0-3.632 2.969-6.587 6.618-6.587.284 0 .562.024.837.059l-1.608 5.338c-.022-.001-.042-.007-.064-.007-1.159 0-2.102.94-2.102 2.096s.943 2.096 2.102 2.096c.78 0 1.453-.431 1.817-1.061l4.337 1.97a6.616 6.616 0 0 1-5.318 2.683c-3.649 0-6.618-2.955-6.618-6.587zm6.688.899c0 .495-.406.898-.905.898s-.905-.403-.905-.898.406-.898.905-.898.905.403.905.898zM4.452 25.989a.683.683 0 0 1-.959.001.667.667 0 0 1 0-.948l1.08-1.076.956.952-1.077 1.072zm3.608 4.192a.683.683 0 0 1-.96.001.667.667 0 0 1 0-.948l1.081-1.077.956.952-1.077 1.072zm3.91-3.895-.002.001-1.982 1.976-.956-.952 1.98-1.971v-.001l.002-.001c.045-.045.073-.099.101-.152.008-.016.023-.029.029-.045.019-.046.022-.096.029-.144.004-.028.016-.053.016-.081 0-.04-.014-.079-.023-.119-.007-.036-.007-.073-.021-.107a.64.64 0 0 0-.102-.155c-.011-.013-.016-.03-.028-.043h-.001l-.001-.002-1.804-1.796c-.019-.019-.044-.027-.065-.043a.575.575 0 0 0-.098-.065.57.57 0 0 0-.105-.037.553.553 0 0 0-.116-.022.634.634 0 0 0-.107.005.59.59 0 0 0-.117.023c-.038.012-.071.031-.106.05-.022.013-.047.017-.068.032l-1.991 1.486-1.011-1.007 2.694-2.679 4.896 4.815-1.041 1.032zm7.656-7.879c-.017-.002-.034.004-.051.003a.617.617 0 0 0-.336.085.521.521 0 0 0-.093.069c-.014.013-.032.019-.045.033l-5.275 5.778-4.86-4.779 3.181-3.164a.6.6 0 0 0-.426-1.022v-.001l-2.491.015.031-1.805 3.485.03a7.8 7.8 0 0 0 5.593 2.359c.491 0 .97-.051 1.437-.138.045.036.089.073.146.095l2.706 1.078.171.852.2.994-3.371-.48zm4.537.201-.352-1.749 1.624-1.213 1.063 1.411-2.335 1.551zm4.215-3.179-.941.882-1.046-1.388.934-.716a.811.811 0 0 1 1.149.158.802.802 0 0 1-.096 1.064z"/>
    </symbol><symbol id="icon-modal" viewBox="0 0 32 32">
<path d="M32 3.224l-3.224-3.224-12.776 12.776-12.776-12.776-3.224 3.224 12.776 12.776-12.776 12.776 3.224 3.224 12.776-12.776 12.776 12.776 3.224-3.224-12.776-12.776 12.776-12.776z"></path>
</symbol>

  </defs>
</svg>
